<svg width="24" height="24" viewBox="0 0 24 24" fill="none" xmlns="http://www.w3.org/2000/svg">
<path d="M20.5714 17.1429C19.9661 17.1458 19.3731 17.3148 18.8571 17.6314L16.2086 14.9743C16.8249 14.1049 17.1559 13.0656 17.1559 12C17.1559 10.9344 16.8249 9.89506 16.2086 9.02571L18.8571 6.36857C19.3731 6.6852 19.9661 6.85419 20.5714 6.85714C21.2495 6.85714 21.9124 6.65606 22.4762 6.27933C23.0401 5.90259 23.4795 5.36712 23.739 4.74063C23.9985 4.11414 24.0664 3.42477 23.9341 2.75969C23.8018 2.09461 23.4753 1.4837 22.9958 1.00421C22.5163 0.524712 21.9054 0.198173 21.2403 0.0658806C20.5752 -0.0664116 19.8859 0.00148555 19.2594 0.260986C18.6329 0.520486 18.0974 0.959935 17.7207 1.52376C17.3439 2.08759 17.1429 2.75047 17.1429 3.42857C17.1458 4.03394 17.3148 4.62689 17.6314 5.14286L14.9743 7.79143C14.1049 7.17514 13.0656 6.84412 12 6.84412C10.9344 6.84412 9.89506 7.17514 9.02571 7.79143L6.36857 5.14286C6.6852 4.62689 6.85419 4.03394 6.85714 3.42857C6.85714 2.75047 6.65606 2.08759 6.27933 1.52376C5.90259 0.959935 5.36712 0.520486 4.74063 0.260986C4.11414 0.00148555 3.42477 -0.0664116 2.75969 0.0658806C2.09461 0.198173 1.4837 0.524712 1.00421 1.00421C0.524712 1.4837 0.198173 2.09461 0.0658806 2.75969C-0.0664116 3.42477 0.00148555 4.11414 0.260986 4.74063C0.520486 5.36712 0.959935 5.90259 1.52376 6.27933C2.08759 6.65606 2.75047 6.85714 3.42857 6.85714C4.03394 6.85419 4.62689 6.6852 5.14286 6.36857L7.79143 9.02571C7.17514 9.89506 6.84412 10.9344 6.84412 12C6.84412 13.0656 7.17514 14.1049 7.79143 14.9743L5.14286 17.6314C4.62689 17.3148 4.03394 17.1458 3.42857 17.1429C2.75047 17.1429 2.08759 17.3439 1.52376 17.7207C0.959935 18.0974 0.520486 18.6329 0.260986 19.2594C0.00148555 19.8859 -0.0664116 20.5752 0.0658806 21.2403C0.198173 21.9054 0.524712 22.5163 1.00421 22.9958C1.4837 23.4753 2.09461 23.8018 2.75969 23.9341C3.42477 24.0664 4.11414 23.9985 4.74063 23.739C5.36712 23.4795 5.90259 23.0401 6.27933 22.4762C6.65606 21.9124 6.85714 21.2495 6.85714 20.5714C6.85419 19.9661 6.6852 19.3731 6.36857 18.8571L9.02571 16.2086C9.89506 16.8249 10.9344 17.1559 12 17.1559C13.0656 17.1559 14.1049 16.8249 14.9743 16.2086L17.6314 18.8571C17.3148 19.3731 17.1458 19.9661 17.1429 20.5714C17.1429 21.2495 17.3439 21.9124 17.7207 22.4762C18.0974 23.0401 18.6329 23.4795 19.2594 23.739C19.8859 23.9985 20.5752 24.0664 21.2403 23.9341C21.9054 23.8018 22.5163 23.4753 22.9958 22.9958C23.4753 22.5163 23.8018 21.9054 23.9341 21.2403C24.0664 20.5752 23.9985 19.8859 23.739 19.2594C23.4795 18.6329 23.0401 18.0974 22.4762 17.7207C21.9124 17.3439 21.2495 17.1429 20.5714 17.1429ZM12 15.4286C11.3219 15.4286 10.659 15.2275 10.0952 14.8508C9.53136 14.474 9.09191 13.9385 8.83241 13.3121C8.57291 12.6856 8.50502 11.9962 8.63731 11.3311C8.7696 10.666 9.09614 10.0551 9.57563 9.57563C10.0551 9.09614 10.666 8.7696 11.3311 8.63731C11.9962 8.50502 12.6856 8.57291 13.3121 8.83241C13.9385 9.09191 14.474 9.53136 14.8508 10.0952C15.2275 10.659 15.4286 11.3219 15.4286 12C15.4286 12.9093 15.0673 13.7814 14.4244 14.4244C13.7814 15.0673 12.9093 15.4286 12 15.4286Z" fill="#A3AED0"/>
</svg>
