<svg width="26" height="26" viewBox="0 0 26 26" fill="none" xmlns="http://www.w3.org/2000/svg">
<path d="M21.4175 14.8962H17.0408C14.8633 14.8962 13.8125 13.8887 13.8125 11.8087V4.44199C13.8125 2.36199 14.8742 1.35449 17.0408 1.35449H21.4175C23.595 1.35449 24.6458 2.36199 24.6458 4.44199V11.8087C24.6458 13.8887 23.5842 14.8962 21.4175 14.8962ZM17.0408 2.97949C15.665 2.97949 15.4375 3.34783 15.4375 4.44199V11.8087C15.4375 12.9028 15.665 13.2712 17.0408 13.2712H21.4175C22.7933 13.2712 23.0208 12.9028 23.0208 11.8087V4.44199C23.0208 3.34783 22.7933 2.97949 21.4175 2.97949H17.0408V2.97949Z" fill="#9CA3AF"/>
<path d="M21.4175 24.6455H17.0408C14.8633 24.6455 13.8125 23.638 13.8125 21.558V19.608C13.8125 17.528 14.8742 16.5205 17.0408 16.5205H21.4175C23.595 16.5205 24.6458 17.528 24.6458 19.608V21.558C24.6458 23.638 23.5842 24.6455 21.4175 24.6455ZM17.0408 18.1455C15.665 18.1455 15.4375 18.5138 15.4375 19.608V21.558C15.4375 22.6522 15.665 23.0205 17.0408 23.0205H21.4175C22.7933 23.0205 23.0208 22.6522 23.0208 21.558V19.608C23.0208 18.5138 22.7933 18.1455 21.4175 18.1455H17.0408Z" fill="#9CA3AF"/>
<path d="M8.95949 24.6462H4.58283C2.40533 24.6462 1.35449 23.6387 1.35449 21.5587V14.192C1.35449 12.112 2.41616 11.1045 4.58283 11.1045H8.95949C11.137 11.1045 12.1878 12.112 12.1878 14.192V21.5587C12.1878 23.6387 11.1262 24.6462 8.95949 24.6462ZM4.58283 12.7295C3.20699 12.7295 2.97949 13.0978 2.97949 14.192V21.5587C2.97949 22.6528 3.20699 23.0212 4.58283 23.0212H8.95949C10.3353 23.0212 10.5628 22.6528 10.5628 21.5587V14.192C10.5628 13.0978 10.3353 12.7295 8.95949 12.7295H4.58283V12.7295Z" fill="#9CA3AF"/>
<path d="M8.95949 9.47949H4.58283C2.40533 9.47949 1.35449 8.47199 1.35449 6.39199V4.44199C1.35449 2.36199 2.41616 1.35449 4.58283 1.35449H8.95949C11.137 1.35449 12.1878 2.36199 12.1878 4.44199V6.39199C12.1878 8.47199 11.1262 9.47949 8.95949 9.47949ZM4.58283 2.97949C3.20699 2.97949 2.97949 3.34783 2.97949 4.44199V6.39199C2.97949 7.48616 3.20699 7.85449 4.58283 7.85449H8.95949C10.3353 7.85449 10.5628 7.48616 10.5628 6.39199V4.44199C10.5628 3.34783 10.3353 2.97949 8.95949 2.97949H4.58283V2.97949Z" fill="#9CA3AF"/>
<rect x="2.16797" y="2.16797" width="8.66667" height="6.5" fill="#9CA3AF"/>
<rect x="15.168" y="17.332" width="8.66667" height="6.5" fill="#9CA3AF"/>
<rect x="15.168" y="2.16797" width="8.66667" height="11.9167" fill="#9CA3AF"/>
</svg>
