<svg width="26" height="26" viewBox="0 0 26 26" fill="none" xmlns="http://www.w3.org/2000/svg">
<path d="M13.0001 20.2007C12.7792 20.2007 12.6001 20.3798 12.6001 20.6007C12.6001 20.8216 12.7792 21.0007 13.0001 21.0007C13.221 21.0007 13.4001 20.8216 13.4001 20.6007C13.4001 20.3798 13.221 20.2007 13.0001 20.2007V20.2007" stroke="#A3AED0" stroke-width="1.2" stroke-linecap="round" stroke-linejoin="round"/>
<path d="M13.0001 17V9" stroke="#A3AED0" stroke-width="1.2" stroke-linecap="round"/>
<path fill-rule="evenodd" clip-rule="evenodd" d="M14.7291 2.07708C14.4052 1.41776 13.7346 1 13 1C12.2654 1 11.5948 1.41776 11.2709 2.07708L1.16641 22.6616C0.919131 23.1646 0.949027 23.7597 1.24548 24.2354C1.54194 24.7111 2.06295 25.0001 2.62348 24.9997H23.3765C23.9371 25.0001 24.4581 24.7111 24.7545 24.2354C25.051 23.7597 25.0809 23.1646 24.8336 22.6616L14.7291 2.07708Z" stroke="#A3AED0" stroke-width="1.2" stroke-linecap="round" stroke-linejoin="round"/>
</svg>
