<svg width="27" height="27" viewBox="0 0 27 27" fill="none" xmlns="http://www.w3.org/2000/svg">
<path d="M11.0032 5.18017L11.3744 10.7001L11.5587 13.4745C11.5607 13.7599 11.6053 14.0433 11.6916 14.3157C11.9141 14.8445 12.4496 15.1805 13.0321 15.1571L21.9084 14.5764C22.2928 14.5701 22.664 14.7139 22.9403 14.9761C23.1705 15.1947 23.3192 15.4805 23.3661 15.788L23.3819 15.9747C23.0145 21.0609 19.2789 25.3033 14.2032 26.3984C9.1274 27.4935 3.92248 25.1801 1.41428 20.7143C0.691184 19.4168 0.239531 17.9908 0.0858377 16.5197C0.0216377 16.0843 -0.00662902 15.6444 0.00130431 15.2044C-0.00662902 9.75136 3.87662 5.037 9.31244 3.90048C9.96668 3.7986 10.608 4.14495 10.8704 4.74176C10.9383 4.87998 10.9831 5.028 11.0032 5.18017Z" fill="#9CA3AF"/>
<path opacity="0.4" d="M26.6648 10.4164L26.6554 10.4598L26.6285 10.523L26.6322 10.6965C26.6184 10.9263 26.5296 11.1473 26.3768 11.326C26.2174 11.512 25.9998 11.6387 25.7602 11.6879L25.6141 11.7079L15.373 12.3715C15.0324 12.4051 14.6932 12.2952 14.44 12.0693C14.2288 11.8809 14.0938 11.6268 14.0557 11.3529L13.3684 1.12675C13.3564 1.09217 13.3564 1.05469 13.3684 1.02011C13.3777 0.738226 13.5018 0.471786 13.7129 0.280306C13.9238 0.0888259 14.2044 -0.0117343 14.4914 0.00109234C20.5713 0.155772 25.6812 4.52772 26.6648 10.4164Z" fill="#112B6E"/>
</svg>
