<svg width="17" height="17" viewBox="0 0 17 17" fill="none" xmlns="http://www.w3.org/2000/svg">
<path fill-rule="evenodd" clip-rule="evenodd" d="M9.84739 7.6341L10.1421 8.60276C10.243 8.93637 10.585 9.1348 10.9247 9.05676L11.9061 8.82943C12.288 8.74277 12.6818 8.91541 12.8769 9.25504C13.072 9.59467 13.0227 10.0218 12.7554 10.3081L12.0687 11.0488C11.8307 11.3047 11.8307 11.7009 12.0687 11.9568L12.7554 12.6974C13.0227 12.9837 13.072 13.4109 12.8769 13.7505C12.6818 14.0901 12.288 14.2628 11.9061 14.1761L10.9247 13.9488C10.585 13.8707 10.243 14.0692 10.1421 14.4028L9.84739 15.3674C9.73494 15.7426 9.38969 15.9995 8.99805 15.9995C8.60641 15.9995 8.26117 15.7426 8.14872 15.3674L7.85339 14.3988C7.75277 14.0652 7.4109 13.8668 7.07139 13.9448L6.08939 14.1721C5.70742 14.2588 5.31361 14.0861 5.11853 13.7465C4.92345 13.4069 4.97274 12.9797 5.24005 12.6934L5.92672 11.9528C6.16469 11.6969 6.16469 11.3007 5.92672 11.0448L5.24005 10.3041C4.97274 10.0178 4.92345 9.59067 5.11853 9.25104C5.31361 8.91141 5.70742 8.73877 6.08939 8.82543L7.07139 9.05276C7.4109 9.13075 7.75277 8.93228 7.85339 8.59876L8.14872 7.6301C8.26205 7.25521 8.6079 6.99908 8.99954 7C9.39118 7.00092 9.73582 7.25868 9.84739 7.6341Z" stroke="#A3AED0" stroke-width="1.2" stroke-linecap="round" stroke-linejoin="round"/>
<path d="M15.924 6.98822C15.5122 4.17021 13.4342 1.88259 10.6686 1.20273C7.903 0.522869 5.0012 1.58631 3.32982 3.89222C1.65843 6.19814 1.55069 9.28678 3.05733 11.7036L1 16.0216L5.316 13.9656C5.54325 14.1069 5.77829 14.2353 6.02 14.3502" stroke="#A3AED0" stroke-width="1.2" stroke-linecap="round" stroke-linejoin="round"/>
</svg>
