<svg width="25" height="25" viewBox="0 0 25 25" fill="none" xmlns="http://www.w3.org/2000/svg">
<path d="M17.5 9.09091C25 9.09091 25 13.6364 25 13.6364V15.9091H17.5V13.6364C17.5 13.6364 17.5 11.7159 16.0625 10C15.85 9.73864 15.5875 9.48864 15.3125 9.25C15.9625 9.15909 16.675 9.09091 17.5 9.09091ZM0 13.6364C0 13.6364 0 9.09091 7.5 9.09091C15 9.09091 15 13.6364 15 13.6364V15.9091H0V13.6364ZM8.75 18.1818V20.4545H16.25V18.1818L20 21.5909L16.25 25V22.7273H8.75V25L5 21.5909L8.75 18.1818ZM7.5 0C5.425 0 3.75 1.52273 3.75 3.40909C3.75 5.29545 5.425 6.81818 7.5 6.81818C9.575 6.81818 11.25 5.29545 11.25 3.40909C11.25 1.52273 9.575 0 7.5 0ZM17.5 0C15.425 0 13.75 1.52273 13.75 3.40909C13.75 5.29545 15.425 6.81818 17.5 6.81818C19.575 6.81818 21.25 5.29545 21.25 3.40909C21.25 1.52273 19.575 0 17.5 0Z" fill="#A3AED0"/>
</svg>
