<svg width="5rem" height="5rem" viewBox="0 0 36 35" fill="none" xmlns="http://www.w3.org/2000/svg">
<path d="M24.7826 25V28H12.2609V25C12.2609 25 12.2609 19 18.5217 19C24.7826 19 24.7826 25 24.7826 25ZM21.6522 11.5C21.6522 10.61 21.4686 9.73996 21.1246 8.99994C20.7806 8.25991 20.2917 7.68314 19.7197 7.34254C19.1477 7.00195 18.5183 6.91283 17.911 7.08647C17.3038 7.2601 16.746 7.68868 16.3082 8.31802C15.8704 8.94736 15.5722 9.74918 15.4515 10.6221C15.3307 11.495 15.3927 12.3998 15.6296 13.2221C15.8665 14.0443 16.2678 14.7471 16.7826 15.2416C17.2974 15.7361 17.9026 16 18.5217 16C19.352 16 20.1482 15.5259 20.7353 14.682C21.3224 13.8381 21.6522 12.6935 21.6522 11.5ZM24.9913 19.09C25.5617 19.8465 26.0216 20.7587 26.344 21.7734C26.6665 22.7881 26.8452 23.885 26.8696 25V28H30V25C30 25 30 19.825 24.9913 19.09ZM23.7391 7C23.4239 7.00027 23.1105 7.07112 22.8104 7.21C23.4209 8.46846 23.7482 9.96578 23.7482 11.5C23.7482 13.0342 23.4209 14.5315 22.8104 15.79C23.1105 15.9289 23.4239 15.9997 23.7391 16C24.5694 16 25.3656 15.5259 25.9527 14.682C26.5398 13.8381 26.8696 12.6935 26.8696 11.5C26.8696 10.3065 26.5398 9.16193 25.9527 8.31802C25.3656 7.47411 24.5694 7 23.7391 7ZM12.6157 12.88L13.8261 14.995L8.86957 22.12L6 17.62L7.21043 15.88L8.86957 18.25L12.6157 12.88Z" fill="black"/>
</svg>
