<svg class="svg-icon" style="width: 1em; height: 1em;vertical-align: middle;fill: currentColor;overflow: hidden;" viewBox="0 0 1024 1024" version="1.1" xmlns="http://www.w3.org/2000/svg"><path d="M913.408 188.416c-4.096-32.768-10.24-63.488-16.384-92.16-2.048-16.384-16.384-28.672-34.816-28.672L161.792 67.584c-14.336 0-28.672 10.24-32.768 24.576C120.832 122.88 114.688 155.648 110.592 188.416c-4.096 30.72-6.144 63.488-6.144 96.256 0 143.36 38.912 274.432 106.496 385.024 69.632 112.64 169.984 202.752 286.72 256 8.192 4.096 18.432 4.096 26.624 0 116.736-53.248 217.088-143.36 286.72-256 67.584-110.592 106.496-241.664 106.496-385.024C919.552 251.904 917.504 219.136 913.408 188.416L913.408 188.416zM755.712 630.784 755.712 630.784C696.32 729.088 610.304 806.912 512 854.016c-98.304-47.104-184.32-124.928-243.712-223.232-61.44-98.304-96.256-219.136-96.256-348.16 0-30.72 2.048-59.392 6.144-88.064 2.048-20.48 6.144-40.96 10.24-61.44l647.168 0c4.096 20.48 8.192 40.96 10.24 61.44 4.096 28.672 6.144 57.344 6.144 88.064C851.968 413.696 817.152 532.48 755.712 630.784L755.712 630.784zM776.192 260.096 776.192 260.096 776.192 260.096 776.192 260.096c0-8.192 0-16.384-2.048-24.576 0-10.24-10.24-18.432-20.48-18.432L268.288 217.088c-10.24 0-20.48 8.192-20.48 18.432 0 8.192-2.048 14.336-2.048 22.528l0 0c0 8.192 0 16.384 0 22.528 0 96.256 24.576 192.512 69.632 276.48 43.008 79.872 106.496 149.504 186.368 198.656 6.144 4.096 14.336 4.096 20.48 0 79.872-49.152 143.36-118.784 186.368-198.656 45.056-83.968 69.632-178.176 69.632-276.48C778.24 276.48 776.192 268.288 776.192 260.096L776.192 260.096zM286.72 282.624 286.72 282.624c0-8.192 0-16.384 0-20.48l0 0 0-4.096 391.168 0-327.68 280.576C309.248 460.8 286.72 372.736 286.72 282.624L286.72 282.624zM673.792 540.672 673.792 540.672C634.88 610.304 581.632 671.744 512 716.8c-49.152-30.72-92.16-71.68-124.928-120.832l350.208-299.008C733.184 382.976 712.704 466.944 673.792 540.672L673.792 540.672z"  /></svg>