<svg width="36" height="35" viewBox="0 0 36 35" fill="none" xmlns="http://www.w3.org/2000/svg">
<path d="M10.8769 8C10.1458 8 9.52553 8.49412 9.30399 9.17647L7 16.2353V25.6471C7 25.9591 7.1167 26.2583 7.32443 26.479C7.53217 26.6996 7.81391 26.8235 8.10769 26.8235H9.21537C9.50915 26.8235 9.79089 26.6996 9.99863 26.479C10.2064 26.2583 10.3231 25.9591 10.3231 25.6471V24.4706H16.1938C15.9764 23.7075 15.8644 22.9149 15.8615 22.1176C15.8633 20.6947 16.2122 19.2966 16.8741 18.0595C17.5361 16.8224 18.4886 15.7886 19.6387 15.0588H9.21537L10.8769 9.76471H23.0615L24.3685 13.9176C25.0475 13.9928 25.7142 14.1629 26.3513 14.4235L24.6344 9.17647C24.4128 8.49412 23.7925 8 23.0615 8H10.8769ZM22.5076 16.2353C22.3636 16.2353 22.2418 16.3412 22.2196 16.4824L22.0092 18.0353C21.6768 18.1882 21.3556 18.3765 21.0676 18.5882L19.6941 18C19.5722 18 19.4282 18 19.3507 18.1529L18.243 20.1882C18.1766 20.3176 18.1987 20.4706 18.3095 20.5647L19.4836 21.5294C19.4615 21.7294 19.4504 21.9176 19.4504 22.1176C19.4504 22.3176 19.4615 22.5059 19.4836 22.7059L18.3095 23.6706C18.2098 23.7647 18.1766 23.9176 18.243 24.0471L19.3507 26.0824C19.4172 26.2353 19.5612 26.2353 19.6941 26.2353L21.0676 25.6471C21.3556 25.8588 21.6658 26.0588 22.0092 26.2L22.2196 27.7529C22.2418 27.8941 22.3525 28 22.5076 28H24.723C24.8448 28 24.9667 27.8941 24.9888 27.7529L25.1993 26.2C25.5316 26.0471 25.8307 25.8588 26.1297 25.6471L27.4922 26.2353C27.6362 26.2353 27.7802 26.2353 27.8577 26.0824L28.9654 24.0471C29.0319 23.9176 28.9987 23.7647 28.899 23.6706L27.7137 22.7059C27.7359 22.5059 27.758 22.3176 27.758 22.1176C27.758 21.9176 27.747 21.7294 27.7137 21.5294L28.8879 20.5647C28.9876 20.4706 29.0208 20.3176 28.9543 20.1882L27.8467 18.1529C27.7802 18 27.6362 18 27.4922 18L26.1297 18.5882C25.8307 18.3765 25.5316 18.1765 25.1882 18.0353L24.9778 16.4824C24.9667 16.3412 24.8448 16.2353 24.723 16.2353H22.5076ZM10.8769 17.4118C11.3176 17.4118 11.7402 17.5977 12.0518 17.9286C12.3634 18.2596 12.5384 18.7084 12.5384 19.1765C12.5384 19.6445 12.3634 20.0934 12.0518 20.4243C11.7402 20.7553 11.3176 20.9412 10.8769 20.9412C10.4362 20.9412 10.0136 20.7553 9.70202 20.4243C9.39043 20.0934 9.21537 19.6445 9.21537 19.1765C9.21537 18.7084 9.39043 18.2596 9.70202 17.9286C10.0136 17.5977 10.4362 17.4118 10.8769 17.4118ZM23.6153 20.3529C24.5347 20.3529 25.2768 21.1412 25.2768 22.1176C25.2768 23.0941 24.5347 23.8824 23.6153 23.8824C22.6848 23.8824 21.9538 23.0941 21.9538 22.1176C21.9538 21.1412 22.6959 20.3529 23.6153 20.3529Z" fill="black"/>
</svg>
