<svg width="5rem" height="5rem" viewBox="0 0 36 35" fill="none" xmlns="http://www.w3.org/2000/svg">
<path d="M15.1596 16.87C15.0596 16.86 14.9396 16.86 14.8296 16.87C12.4496 16.79 10.5596 14.84 10.5596 12.44C10.5596 9.99 12.5396 8 14.9996 8C17.4496 8 19.4396 9.99 19.4396 12.44C19.4296 14.84 17.5396 16.79 15.1596 16.87Z" stroke="#292D32" stroke-width="1.5" stroke-linecap="round" stroke-linejoin="round"/>
<path opacity="0.4" d="M22.4103 10C24.3503 10 25.9103 11.57 25.9103 13.5C25.9103 15.39 24.4103 16.93 22.5403 17C22.4603 16.99 22.3703 16.99 22.2803 17" stroke="#292D32" stroke-width="1.5" stroke-linecap="round" stroke-linejoin="round"/>
<path d="M10.1597 20.56C7.73973 22.18 7.73973 24.82 10.1597 26.43C12.9097 28.27 17.4197 28.27 20.1697 26.43C22.5897 24.81 22.5897 22.17 20.1697 20.56C17.4297 18.73 12.9197 18.73 10.1597 20.56Z" stroke="#292D32" stroke-width="1.5" stroke-linecap="round" stroke-linejoin="round"/>
<path opacity="0.4" d="M24.3398 26C25.0598 25.85 25.7398 25.56 26.2998 25.13C27.8598 23.96 27.8598 22.03 26.2998 20.86C25.7498 20.44 25.0798 20.16 24.3698 20" stroke="#292D32" stroke-width="1.5" stroke-linecap="round" stroke-linejoin="round"/>
</svg>
